<?xml version="1.0" encoding="UTF-8"?>
<svg width="25px" height="25px" viewBox="0 0 25 25" version="1.1" xmlns="http://www.w3.org/2000/svg" xmlns:xlink="http://www.w3.org/1999/xlink">
    <!-- Generator: Sketch 43.1 (39012) - http://www.bohemiancoding.com/sketch -->
    <title>Shape</title>
    <desc>Created with Sketch.</desc>
    <defs></defs>
    <g id="Dashboard" stroke="none" stroke-width="1" fill="none" fill-rule="evenodd">
        <g id="Sign-up-Copy" transform="translate(-372.000000, -628.000000)" fill-rule="nonzero" fill="#485151">
            <g id="Group" transform="translate(175.000000, 254.000000)">
                <g id="Group-3">
                    <g id="Group-3-Copy">
                        <g id="twitter-logo-button" transform="translate(197.000000, 374.000000)">
                            <path d="M12.5,0 C5.6075284,0 0,5.6075284 0,12.5 C0,19.3919681 5.6075284,25 12.5,25 C19.3919681,25 25,19.3919681 25,12.5 C25,5.6075284 19.3929751,0 12.5,0 Z M18.0763111,9.63908805 C18.0818497,9.76295013 18.0848707,9.88781922 18.0848707,10.0126883 C18.0848707,13.81465 15.1917345,18.1971522 9.89839281,18.1971522 C8.27358415,18.1971522 6.76105696,17.7223475 5.48819786,16.9056634 C5.71326432,16.9323492 5.94235882,16.9459438 6.17447434,16.9459438 C7.5228591,16.9459438 8.76299041,16.4857408 9.747845,15.714372 C8.48908402,15.6912108 7.42618626,14.8594216 7.06013856,13.7159631 C7.23535809,13.7491944 7.41611617,13.7678241 7.60090228,13.7678241 C7.86322807,13.7678241 8.11800129,13.7335858 8.35917989,13.6676267 C7.04301942,13.4037904 6.05161927,12.2411987 6.05161927,10.8464916 C6.05161927,10.8344075 6.05161927,10.8218199 6.05212277,10.8102393 C6.43982116,11.0252356 6.88340852,11.1551398 7.35468863,11.1697414 C6.58331991,10.6546564 6.07528398,9.77352373 6.07528398,8.77557802 C6.07528398,8.24790542 6.21676871,7.75346411 6.46449287,7.3285064 C7.88286474,9.06962459 10.0036252,10.2145936 12.3942641,10.3354346 C12.3449206,10.1244663 12.3202489,9.90544188 12.3202489,9.6793684 C12.3202489,8.09081205 13.6082132,6.80234432 15.1967695,6.80234432 C16.0245307,6.80234432 16.7712277,7.15177636 17.2968863,7.71066624 C17.9529525,7.58176911 18.5672279,7.34310803 19.1246073,7.01230565 C18.9081004,7.68448401 18.4534359,8.24790542 17.8577902,8.60438653 C18.4403448,8.53490292 18.9962136,8.38083058 19.5102916,8.15173608 C19.1266213,8.72774511 18.6387255,9.23477403 18.0763111,9.63908805 Z" id="Shape"></path>
                        </g>
                    </g>
                </g>
            </g>
        </g>
    </g>
</svg>